<svg id="visual" viewBox="0 0 900 300" width="900" height="300" xmlns="http://www.w3.org/2000/svg" xmlns:xlink="http://www.w3.org/1999/xlink" version="1.1"><rect x="0" y="0" width="900" height="300" fill="#0a5032"></rect><defs><linearGradient id="grad1_0" x1="66.7%" y1="100%" x2="100%" y2="0%"><stop offset="-10%" stop-color="#18974c" stop-opacity="1"></stop><stop offset="110%" stop-color="#18974c" stop-opacity="1"></stop></linearGradient></defs><defs><linearGradient id="grad1_1" x1="66.7%" y1="100%" x2="100%" y2="0%"><stop offset="-10%" stop-color="#18974c" stop-opacity="1"></stop><stop offset="110%" stop-color="#128c49" stop-opacity="1"></stop></linearGradient></defs><defs><linearGradient id="grad1_2" x1="66.7%" y1="100%" x2="100%" y2="0%"><stop offset="-10%" stop-color="#0e8246" stop-opacity="1"></stop><stop offset="110%" stop-color="#128c49" stop-opacity="1"></stop></linearGradient></defs><defs><linearGradient id="grad1_3" x1="66.7%" y1="100%" x2="100%" y2="0%"><stop offset="-10%" stop-color="#0e8246" stop-opacity="1"></stop><stop offset="110%" stop-color="#0a7842" stop-opacity="1"></stop></linearGradient></defs><defs><linearGradient id="grad1_4" x1="66.7%" y1="100%" x2="100%" y2="0%"><stop offset="-10%" stop-color="#096e3f" stop-opacity="1"></stop><stop offset="110%" stop-color="#0a7842" stop-opacity="1"></stop></linearGradient></defs><defs><linearGradient id="grad1_5" x1="66.7%" y1="100%" x2="100%" y2="0%"><stop offset="-10%" stop-color="#096e3f" stop-opacity="1"></stop><stop offset="110%" stop-color="#08643b" stop-opacity="1"></stop></linearGradient></defs><defs><linearGradient id="grad1_6" x1="66.7%" y1="100%" x2="100%" y2="0%"><stop offset="-10%" stop-color="#095a36" stop-opacity="1"></stop><stop offset="110%" stop-color="#08643b" stop-opacity="1"></stop></linearGradient></defs><defs><linearGradient id="grad1_7" x1="66.7%" y1="100%" x2="100%" y2="0%"><stop offset="-10%" stop-color="#095a36" stop-opacity="1"></stop><stop offset="110%" stop-color="#0a5032" stop-opacity="1"></stop></linearGradient></defs><defs><linearGradient id="grad2_0" x1="0%" y1="100%" x2="33.3%" y2="0%"><stop offset="-10%" stop-color="#18974c" stop-opacity="1"></stop><stop offset="110%" stop-color="#18974c" stop-opacity="1"></stop></linearGradient></defs><defs><linearGradient id="grad2_1" x1="0%" y1="100%" x2="33.3%" y2="0%"><stop offset="-10%" stop-color="#128c49" stop-opacity="1"></stop><stop offset="110%" stop-color="#18974c" stop-opacity="1"></stop></linearGradient></defs><defs><linearGradient id="grad2_2" x1="0%" y1="100%" x2="33.3%" y2="0%"><stop offset="-10%" stop-color="#128c49" stop-opacity="1"></stop><stop offset="110%" stop-color="#0e8246" stop-opacity="1"></stop></linearGradient></defs><defs><linearGradient id="grad2_3" x1="0%" y1="100%" x2="33.3%" y2="0%"><stop offset="-10%" stop-color="#0a7842" stop-opacity="1"></stop><stop offset="110%" stop-color="#0e8246" stop-opacity="1"></stop></linearGradient></defs><defs><linearGradient id="grad2_4" x1="0%" y1="100%" x2="33.3%" y2="0%"><stop offset="-10%" stop-color="#0a7842" stop-opacity="1"></stop><stop offset="110%" stop-color="#096e3f" stop-opacity="1"></stop></linearGradient></defs><defs><linearGradient id="grad2_5" x1="0%" y1="100%" x2="33.3%" y2="0%"><stop offset="-10%" stop-color="#08643b" stop-opacity="1"></stop><stop offset="110%" stop-color="#096e3f" stop-opacity="1"></stop></linearGradient></defs><defs><linearGradient id="grad2_6" x1="0%" y1="100%" x2="33.3%" y2="0%"><stop offset="-10%" stop-color="#08643b" stop-opacity="1"></stop><stop offset="110%" stop-color="#095a36" stop-opacity="1"></stop></linearGradient></defs><defs><linearGradient id="grad2_7" x1="0%" y1="100%" x2="33.3%" y2="0%"><stop offset="-10%" stop-color="#0a5032" stop-opacity="1"></stop><stop offset="110%" stop-color="#095a36" stop-opacity="1"></stop></linearGradient></defs><g transform="translate(900, 300)"><path d="M-285 0C-273.1 -47 -261.3 -94 -239 -138C-216.8 -182 -184.1 -222.8 -142.5 -246.8C-100.9 -270.8 -50.5 -277.9 0 -285L0 0Z" fill="#095534"></path><path d="M-249.4 0C-239 -41.1 -228.6 -82.3 -209.1 -120.8C-189.7 -159.2 -161.1 -195 -124.7 -216C-88.3 -237 -44.2 -243.2 0 -249.4L0 0Z" fill="#095f39"></path><path d="M-213.7 0C-204.9 -35.3 -196 -70.5 -179.3 -103.5C-162.6 -136.5 -138.1 -167.1 -106.9 -185.1C-75.7 -203.1 -37.8 -208.4 0 -213.7L0 0Z" fill="#08693d"></path><path d="M-178.1 0C-170.7 -29.4 -163.3 -58.8 -149.4 -86.3C-135.5 -113.7 -115 -139.3 -89.1 -154.3C-63.1 -169.3 -31.5 -173.7 0 -178.1L0 0Z" fill="#097340"></path><path d="M-142.5 0C-136.6 -23.5 -130.6 -47 -119.5 -69C-108.4 -91 -92 -111.4 -71.3 -123.4C-50.5 -135.4 -25.2 -139 0 -142.5L0 0Z" fill="#0c7d44"></path><path d="M-106.9 0C-102.4 -17.6 -98 -35.3 -89.6 -51.8C-81.3 -68.2 -69 -83.6 -53.4 -92.6C-37.8 -101.6 -18.9 -104.2 0 -106.9L0 0Z" fill="#108747"></path><path d="M-71.2 0C-68.3 -11.8 -65.3 -23.5 -59.8 -34.5C-54.2 -45.5 -46 -55.7 -35.6 -61.7C-25.2 -67.7 -12.6 -69.5 0 -71.2L0 0Z" fill="#15924b"></path><path d="M-35.6 0C-34.1 -5.9 -32.7 -11.8 -29.9 -17.3C-27.1 -22.7 -23 -27.9 -17.8 -30.9C-12.6 -33.9 -6.3 -34.7 0 -35.6L0 0Z" fill="#18974c"></path></g><g transform="translate(0, 0)"><path d="M285 0C269.9 45.2 254.8 90.3 233 134.5C211.1 178.7 182.5 221.9 142.5 246.8C102.5 271.7 51.3 278.4 0 285L0 0Z" fill="#095534"></path><path d="M249.4 0C236.2 39.5 223 79 203.8 117.7C184.7 156.3 159.6 194.2 124.7 216C89.7 237.8 44.9 243.6 0 249.4L0 0Z" fill="#095f39"></path><path d="M213.8 0C202.4 33.9 191.1 67.7 174.7 100.9C158.3 134 136.8 166.4 106.9 185.1C76.9 203.8 38.5 208.8 0 213.8L0 0Z" fill="#08693d"></path><path d="M178.1 0C168.7 28.2 159.3 56.4 145.6 84.1C131.9 111.7 114 138.7 89.1 154.3C64.1 169.8 32 174 0 178.1L0 0Z" fill="#097340"></path><path d="M142.5 0C135 22.6 127.4 45.2 116.5 67.2C105.5 89.3 91.2 110.9 71.3 123.4C51.3 135.9 25.6 139.2 0 142.5L0 0Z" fill="#0c7d44"></path><path d="M106.9 0C101.2 16.9 95.6 33.9 87.4 50.4C79.2 67 68.4 83.2 53.4 92.6C38.5 101.9 19.2 104.4 0 106.9L0 0Z" fill="#108747"></path><path d="M71.3 0C67.5 11.3 63.7 22.6 58.2 33.6C52.8 44.7 45.6 55.5 35.6 61.7C25.6 67.9 12.8 69.6 0 71.3L0 0Z" fill="#15924b"></path><path d="M35.6 0C33.7 5.6 31.9 11.3 29.1 16.8C26.4 22.3 22.8 27.7 17.8 30.9C12.8 34 6.4 34.8 0 35.6L0 0Z" fill="#18974c"></path></g></svg>